<svg width="100" height="100" viewBox="0 0 100 100" xmlns="http://www.w3.org/2000/svg" style="background: transparent;">
  <defs>
    <!-- 面板渐变定义 -->
    <linearGradient id="panelGradient" x1="0%" y1="0%" x2="100%" y2="100%">
      <stop offset="0%" style="stop-color:#f8f8f8;stop-opacity:1" />
      <stop offset="100%" style="stop-color:#e0e0e0;stop-opacity:1" />
    </linearGradient>
  </defs>
  
  <!-- 服务器面板 -->
  <rect x="5" y="10" width="90" height="22" rx="6" ry="6" fill="url(#panelGradient)" stroke="#ccc" stroke-width="1.5"/>
  <rect x="5" y="38" width="90" height="22" rx="6" ry="6" fill="url(#panelGradient)" stroke="#ccc" stroke-width="1.5"/>
  <rect x="5" y="66" width="90" height="22" rx="6" ry="6" fill="url(#panelGradient)" stroke="#ccc" stroke-width="1.5"/>
  
  <!-- 第一排指示灯 -->
  <circle cx="15" cy="21" r="4" fill="#00ff00">
    <animate attributeName="opacity" values="1;0.3;1" dur="2s" repeatCount="indefinite"/>
  </circle>
  <circle cx="27" cy="21" r="4" fill="#ff8000">
    <animate attributeName="opacity" values="1;0.2;1" dur="1.2s" repeatCount="indefinite"/>
  </circle>
  <circle cx="39" cy="21" r="4" fill="#ff4000">
    <animate attributeName="opacity" values="0.4;1;0.4" dur="1s" repeatCount="indefinite"/>
  </circle>
  
  <!-- 第二排指示灯 -->
  <circle cx="15" cy="49" r="4" fill="#ffff00">
    <animate attributeName="opacity" values="1;0.1;1" dur="2.5s" repeatCount="indefinite"/>
  </circle>
  <circle cx="27" cy="49" r="4" fill="#00ffff">
    <animate attributeName="opacity" values="0.3;1;0.3" dur="1.8s" repeatCount="indefinite"/>
  </circle>
  <circle cx="39" cy="49" r="4" fill="#ff69b4">
    <animate attributeName="opacity" values="0.5;1;0.5" dur="2.2s" repeatCount="indefinite"/>
  </circle>
  
  <!-- 第三排指示灯 -->
  <circle cx="15" cy="77" r="4" fill="#ffffff" stroke="#999" stroke-width="0.8">
    <animate attributeName="opacity" values="1;0.4;1" dur="3s" repeatCount="indefinite"/>
  </circle>
  <circle cx="27" cy="77" r="4" fill="#ff4080">
    <animate attributeName="opacity" values="0.6;1;0.6" dur="1.9s" repeatCount="indefinite"/>
  </circle>
  <circle cx="39" cy="77" r="4" fill="#80ff00">
    <animate attributeName="opacity" values="0.3;1;0.3" dur="2.8s" repeatCount="indefinite"/>
  </circle>
  
  <!-- 散热孔 - 第一排面板 -->
  <rect x="50" y="14" width="3" height="3" fill="#999" opacity="0.6"/>
  <rect x="55" y="14" width="3" height="3" fill="#999" opacity="0.6"/>
  <rect x="60" y="14" width="3" height="3" fill="#999" opacity="0.6"/>
  <rect x="65" y="14" width="3" height="3" fill="#999" opacity="0.6"/>
  <rect x="70" y="14" width="3" height="3" fill="#999" opacity="0.6"/>
  <rect x="75" y="14" width="3" height="3" fill="#999" opacity="0.6"/>
  <rect x="80" y="14" width="3" height="3" fill="#999" opacity="0.6"/>
  <rect x="85" y="14" width="3" height="3" fill="#999" opacity="0.6"/>
  
  <rect x="50" y="19" width="3" height="3" fill="#999" opacity="0.6"/>
  <rect x="55" y="19" width="3" height="3" fill="#999" opacity="0.6"/>
  <rect x="60" y="19" width="3" height="3" fill="#999" opacity="0.6"/>
  <rect x="65" y="19" width="3" height="3" fill="#999" opacity="0.6"/>
  <rect x="70" y="19" width="3" height="3" fill="#999" opacity="0.6"/>
  <rect x="75" y="19" width="3" height="3" fill="#999" opacity="0.6"/>
  <rect x="80" y="19" width="3" height="3" fill="#999" opacity="0.6"/>
  <rect x="85" y="19" width="3" height="3" fill="#999" opacity="0.6"/>
  
  <rect x="50" y="24" width="3" height="3" fill="#999" opacity="0.6"/>
  <rect x="55" y="24" width="3" height="3" fill="#999" opacity="0.6"/>
  <rect x="60" y="24" width="3" height="3" fill="#999" opacity="0.6"/>
  <rect x="65" y="24" width="3" height="3" fill="#999" opacity="0.6"/>
  <rect x="70" y="24" width="3" height="3" fill="#999" opacity="0.6"/>
  <rect x="75" y="24" width="3" height="3" fill="#999" opacity="0.6"/>
  <rect x="80" y="24" width="3" height="3" fill="#999" opacity="0.6"/>
  <rect x="85" y="24" width="3" height="3" fill="#999" opacity="0.6"/>
  
  <!-- 散热孔 - 第二排面板 -->
  <rect x="50" y="42" width="3" height="3" fill="#999" opacity="0.6"/>
  <rect x="55" y="42" width="3" height="3" fill="#999" opacity="0.6"/>
  <rect x="60" y="42" width="3" height="3" fill="#999" opacity="0.6"/>
  <rect x="65" y="42" width="3" height="3" fill="#999" opacity="0.6"/>
  <rect x="70" y="42" width="3" height="3" fill="#999" opacity="0.6"/>
  <rect x="75" y="42" width="3" height="3" fill="#999" opacity="0.6"/>
  <rect x="80" y="42" width="3" height="3" fill="#999" opacity="0.6"/>
  <rect x="85" y="42" width="3" height="3" fill="#999" opacity="0.6"/>
  
  <rect x="50" y="47" width="3" height="3" fill="#999" opacity="0.6"/>
  <rect x="55" y="47" width="3" height="3" fill="#999" opacity="0.6"/>
  <rect x="60" y="47" width="3" height="3" fill="#999" opacity="0.6"/>
  <rect x="65" y="47" width="3" height="3" fill="#999" opacity="0.6"/>
  <rect x="70" y="47" width="3" height="3" fill="#999" opacity="0.6"/>
  <rect x="75" y="47" width="3" height="3" fill="#999" opacity="0.6"/>
  <rect x="80" y="47" width="3" height="3" fill="#999" opacity="0.6"/>
  <rect x="85" y="47" width="3" height="3" fill="#999" opacity="0.6"/>
  
  <rect x="50" y="52" width="3" height="3" fill="#999" opacity="0.6"/>
  <rect x="55" y="52" width="3" height="3" fill="#999" opacity="0.6"/>
  <rect x="60" y="52" width="3" height="3" fill="#999" opacity="0.6"/>
  <rect x="65" y="52" width="3" height="3" fill="#999" opacity="0.6"/>
  <rect x="70" y="52" width="3" height="3" fill="#999" opacity="0.6"/>
  <rect x="75" y="52" width="3" height="3" fill="#999" opacity="0.6"/>
  <rect x="80" y="52" width="3" height="3" fill="#999" opacity="0.6"/>
  <rect x="85" y="52" width="3" height="3" fill="#999" opacity="0.6"/>
  
  <!-- 散热孔 - 第三排面板 -->
  <rect x="50" y="70" width="3" height="3" fill="#999" opacity="0.6"/>
  <rect x="55" y="70" width="3" height="3" fill="#999" opacity="0.6"/>
  <rect x="60" y="70" width="3" height="3" fill="#999" opacity="0.6"/>
  <rect x="65" y="70" width="3" height="3" fill="#999" opacity="0.6"/>
  <rect x="70" y="70" width="3" height="3" fill="#999" opacity="0.6"/>
  <rect x="75" y="70" width="3" height="3" fill="#999" opacity="0.6"/>
  <rect x="80" y="70" width="3" height="3" fill="#999" opacity="0.6"/>
  <rect x="85" y="70" width="3" height="3" fill="#999" opacity="0.6"/>
  
  <rect x="50" y="75" width="3" height="3" fill="#999" opacity="0.6"/>
  <rect x="55" y="75" width="3" height="3" fill="#999" opacity="0.6"/>
  <rect x="60" y="75" width="3" height="3" fill="#999" opacity="0.6"/>
  <rect x="65" y="75" width="3" height="3" fill="#999" opacity="0.6"/>
  <rect x="70" y="75" width="3" height="3" fill="#999" opacity="0.6"/>
  <rect x="75" y="75" width="3" height="3" fill="#999" opacity="0.6"/>
  <rect x="80" y="75" width="3" height="3" fill="#999" opacity="0.6"/>
  <rect x="85" y="75" width="3" height="3" fill="#999" opacity="0.6"/>
  
  <rect x="50" y="80" width="3" height="3" fill="#999" opacity="0.6"/>
  <rect x="55" y="80" width="3" height="3" fill="#999" opacity="0.6"/>
  <rect x="60" y="80" width="3" height="3" fill="#999" opacity="0.6"/>
  <rect x="65" y="80" width="3" height="3" fill="#999" opacity="0.6"/>
  <rect x="70" y="80" width="3" height="3" fill="#999" opacity="0.6"/>
  <rect x="75" y="80" width="3" height="3" fill="#999" opacity="0.6"/>
  <rect x="80" y="80" width="3" height="3" fill="#999" opacity="0.6"/>
  <rect x="85" y="80" width="3" height="3" fill="#999" opacity="0.6"/>
</svg>