<?xml version="1.0" encoding="UTF-8"?>
<svg width="443px" height="370px" viewBox="0 0 443 370" version="1.1" xmlns="http://www.w3.org/2000/svg" xmlns:xlink="http://www.w3.org/1999/xlink">
    <title>未命名</title>
    <g id="页面-1" stroke="none" stroke-width="1" fill="none" fill-rule="evenodd">
        <g id="server1_78341" fill-rule="nonzero">
            <path d="M428,111.904568 C428,114.703742 425.691242,117 422.885514,117 L22.1242687,117 C19.3185408,117 17,114.70959 17,111.904568 L17,5.09933025 C17,2.30015661 19.3185408,0 22.1242687,0 L422.885514,0 C425.695155,0 428,2.30015661 428,5.09933025 L428,111.904568 Z" id="路径" fill="#CEE2F2"></path>
            <rect id="矩形" fill="#F2F9FF" x="30" y="12" width="386" height="94"></rect>
            <g id="编组" transform="translate(69.000000, 15.000000)" fill="#5D6D7E">
                <path d="M319.131305,42.4834278 C319.131305,48.4182398 314.325786,53.2241897 308.407102,53.2241897 C302.488418,53.2241897 297.671202,48.4182398 297.671202,42.4834278 C297.671202,36.5681125 302.486468,31.7582632 308.407102,31.7582632 C314.327735,31.7582632 319.131305,36.5700622 319.131305,42.4834278 Z" id="路径"></path>
                <rect id="矩形" x="0" y="19.3641764" width="9.43168408" height="9.41303301"></rect>
                <rect id="矩形" x="29.096297" y="19.3641764" width="9.40829007" height="9.41303301"></rect>
                <rect id="矩形" x="58.192594" y="19.3641764" width="9.44728008" height="9.41303301"></rect>
                <rect id="矩形" x="87.2479515" y="19.3641764" width="9.44338108" height="9.41303301"></rect>
                <rect id="矩形" x="116.383238" y="19.3641764" width="9.41218907" height="9.41303301"></rect>
                <rect id="矩形" x="0" y="56.1993945" width="9.43168408" height="9.43837879"></rect>
                <rect id="矩形" x="29.096297" y="56.1993945" width="9.40829007" height="9.43837879"></rect>
                <rect id="矩形" x="58.192594" y="56.1993945" width="9.44728008" height="9.43837879"></rect>
                <rect id="矩形" x="87.2479515" y="56.1993945" width="9.44338108" height="9.43837879"></rect>
                <rect id="矩形" x="116.383238" y="56.1993945" width="9.41218907" height="9.43837879"></rect>
                <rect id="矩形" x="14.1241321" y="37.7730119" width="9.43168408" height="9.44422781"></rect>
                <rect id="矩形" x="43.1697421" y="37.7730119" width="9.42778508" height="9.44422781"></rect>
                <rect id="矩形" x="72.2757866" y="37.7730119" width="9.44338108" height="9.44422781"></rect>
                <rect id="矩形" x="101.411074" y="37.7730119" width="9.42193657" height="9.44422781"></rect>
                <rect id="矩形" x="130.456684" y="37.7730119" width="9.41803757" height="9.44422781"></rect>
                <rect id="矩形" x="178.517723" y="37.7730119" width="80.5494673" height="9.44422781"></rect>
                <rect id="矩形" x="356.986708" y="0" width="17.013292" height="85"></rect>
            </g>
            <g id="编组" transform="translate(433.000000, 23.000000)" fill="#F2F9FF">
                <path d="M5,2.62828058 C5,4.08843646 3.86536374,5.27183076 2.48823742,5.27183076 C1.13463626,5.27183076 0,4.08843646 0,2.62828058 C0,1.18721171 1.13463626,0 2.48823742,0 C3.85993485,0 5,1.18721171 5,2.62828058 Z" id="路径"></path>
                <path d="M5,69.3659933 C5,70.8127883 3.86536374,72 2.48823742,72 C1.13463626,72 0,70.8127883 0,69.3659933 C0,67.9096548 1.13463626,66.7415301 2.48823742,66.7415301 C3.85993485,66.7415301 5,67.9096548 5,69.3659933 Z" id="路径"></path>
            </g>
            <rect id="矩形" fill="#5D6D7E" x="0" y="15" width="17" height="85"></rect>
            <g id="编组" transform="translate(7.000000, 23.000000)" fill="#F2F9FF">
                <path d="M4.99098449,2.6646432 C4.99098449,4.14500053 3.86404616,5.34476726 2.48827984,5.34476726 C1.10890732,5.34476726 0,4.14500053 0,2.6646432 C0,1.20363694 1.10710422,0 2.48827984,0 C3.86404616,0 4.99098449,1.20363694 4.99098449,2.6646432 Z" id="路径"></path>
                <ellipse id="椭圆形" cx="2.50270465" cy="70.3198759" rx="2.49729535" ry="2.68012406"></ellipse>
            </g>
            <path d="M428,237.903719 C428,240.713107 425.691242,243 422.885514,243 L22.1242687,243 C19.3185408,243 17,240.715057 17,237.903719 L17,131.106029 C17,128.286893 19.3185408,126 22.1242687,126 L422.885514,126 C425.695155,126 428,128.284943 428,131.106029 L428,237.903719 Z" id="路径" fill="#CEE2F2"></path>
            <rect id="矩形" fill="#F2F9FF" x="30" y="138" width="386" height="94"></rect>
            <g id="编组" transform="translate(69.000000, 141.000000)" fill="#5D6D7E">
                <ellipse id="椭圆形" cx="308.37591" cy="42.4756291" rx="10.7300515" ry="10.7310136"></ellipse>
                <rect id="矩形" x="0" y="19.3661261" width="9.43168408" height="9.43252976"></rect>
                <rect id="矩形" x="29.096297" y="19.3661261" width="9.40829007" height="9.43252976"></rect>
                <rect id="矩形" x="58.192594" y="19.3661261" width="9.44728008" height="9.43252976"></rect>
                <rect id="矩形" x="87.2479515" y="19.3661261" width="9.44338108" height="9.43252976"></rect>
                <rect id="矩形" x="116.383238" y="19.3661261" width="9.41218907" height="9.43252976"></rect>
                <rect id="矩形" x="0" y="56.1506526" width="9.43168408" height="9.43252976"></rect>
                <rect id="矩形" x="29.096297" y="56.1506526" width="9.40829007" height="9.43252976"></rect>
                <rect id="矩形" x="58.192594" y="56.1506526" width="9.44728008" height="9.43252976"></rect>
                <rect id="矩形" x="87.2479515" y="56.1506526" width="9.44338108" height="9.43252976"></rect>
                <rect id="矩形" x="116.383238" y="56.1506526" width="9.41218907" height="9.43252976"></rect>
                <rect id="矩形" x="14.1241321" y="37.7827603" width="9.43168408" height="9.42863041"></rect>
                <rect id="矩形" x="43.1697421" y="37.7827603" width="9.42778508" height="9.42863041"></rect>
                <rect id="矩形" x="72.2757866" y="37.7827603" width="9.44338108" height="9.42863041"></rect>
                <rect id="矩形" x="101.411074" y="37.7827603" width="9.42193657" height="9.42863041"></rect>
                <rect id="矩形" x="130.456684" y="37.7827603" width="9.41803757" height="9.42863041"></rect>
                <rect id="矩形" x="178.517723" y="37.7827603" width="80.5494673" height="9.42863041"></rect>
                <rect id="矩形" x="356.986708" y="0" width="17.013292" height="85"></rect>
            </g>
            <g id="编组" transform="translate(433.000000, 148.000000)" fill="#F2F9FF">
                <path d="M5,2.68528874 C5,4.15175046 3.86536374,5.34929637 2.48823742,5.34929637 C1.13463626,5.34929637 0,4.14981581 0,2.68528874 C0,1.20915379 1.13463626,0 2.48823742,0 C3.85993485,0.00193464607 5,1.21495773 5,2.68528874 Z" id="路径"></path>
                <path d="M5,70.3205152 C5,71.7869769 3.86536374,73 2.48823742,73 C1.13463626,73 0,71.7908462 0,70.3205152 C0,68.8501842 1.13463626,67.6565076 2.48823742,67.6565076 C3.85993485,67.6565076 5,68.8501842 5,70.3205152 Z" id="路径"></path>
            </g>
            <rect id="矩形" fill="#5D6D7E" x="0" y="141" width="17" height="85"></rect>
            <g id="编组" transform="translate(7.000000, 148.000000)" fill="#F2F9FF">
                <ellipse id="椭圆形" cx="2.5" cy="2.67955581" rx="2.5" ry="2.67955581"></ellipse>
                <ellipse id="椭圆形" cx="2.5" cy="70.3204442" rx="2.5" ry="2.67955581"></ellipse>
            </g>
            <path d="M428,364.919316 C428,367.69946 425.691242,370 422.885514,370 L22.1242687,370 C19.3185408,370 17,367.69946 17,364.919316 L17,258.106029 C17,255.310288 19.3185408,253 22.1242687,253 L422.885514,253 C425.695155,253 428,255.316137 428,258.106029 L428,364.919316 Z" id="路径" fill="#CEE2F2"></path>
            <rect id="矩形" fill="#F2F9FF" x="30" y="264" width="386" height="94"></rect>
            <g id="编组" transform="translate(69.000000, 268.000000)" fill="#5D6D7E">
                <path d="M319.131305,42.4941543 C319.131305,48.4099766 314.325786,53.2092751 308.407102,53.2092751 C302.488418,53.2092751 297.671202,48.4060795 297.671202,42.4941543 C297.671202,36.5588465 302.486468,31.7790335 308.407102,31.7790335 C314.327735,31.7790335 319.131305,36.5530008 319.131305,42.4941543 Z" id="路径"></path>
                <rect id="矩形" x="0" y="19.4037412" width="9.43168408" height="9.41738114"></rect>
                <rect id="矩形" x="29.096297" y="19.4037412" width="9.40829007" height="9.41738114"></rect>
                <rect id="矩形" x="58.192594" y="19.4037412" width="9.44728008" height="9.41738114"></rect>
                <rect id="矩形" x="87.2479515" y="19.4037412" width="9.44338108" height="9.41738114"></rect>
                <rect id="矩形" x="116.383238" y="19.4037412" width="9.41218907" height="9.41738114"></rect>
                <rect id="矩形" x="0" y="56.1671863" width="9.43168408" height="9.44855807"></rect>
                <rect id="矩形" x="29.096297" y="56.1671863" width="9.40829007" height="9.44855807"></rect>
                <rect id="矩形" x="58.192594" y="56.1671863" width="9.44728008" height="9.44855807"></rect>
                <rect id="矩形" x="87.2479515" y="56.1671863" width="9.44338108" height="9.44855807"></rect>
                <rect id="矩形" x="116.383238" y="56.1671863" width="9.41218907" height="9.44855807"></rect>
                <rect id="矩形" x="14.1241321" y="37.8117693" width="9.43168408" height="9.39789556"></rect>
                <rect id="矩形" x="43.1697421" y="37.8117693" width="9.42778508" height="9.39789556"></rect>
                <rect id="矩形" x="72.2757866" y="37.8117693" width="9.44338108" height="9.39789556"></rect>
                <rect id="矩形" x="101.411074" y="37.8117693" width="9.42193657" height="9.39789556"></rect>
                <rect id="矩形" x="130.456684" y="37.8117693" width="9.41803757" height="9.39789556"></rect>
                <rect id="矩形" x="178.517723" y="37.8117693" width="80.5494673" height="9.39789556"></rect>
                <rect id="矩形" x="356.986708" y="0" width="17.013292" height="85"></rect>
            </g>
            <g id="编组" transform="translate(433.000000, 274.000000)" fill="#F2F9FF">
                <path d="M5,2.6648756 C5,4.13180341 3.86536374,5.32585942 2.48823742,5.32585942 C1.13463626,5.32585942 0,4.13180341 0,2.6648756 C0,1.17859518 1.13463626,0 2.48823742,0 C3.85993485,-0.00578452931 5,1.17859518 5,2.6648756 Z" id="路径"></path>
                <path d="M5,70.3196636 C5,71.7904619 3.86536374,73 2.48823742,73 C1.13463626,73 0,71.7904619 0,70.3196636 C0,68.8391889 1.13463626,67.6586797 2.48823742,67.6586797 C3.85993485,67.6586797 5,68.8391889 5,70.3196636 Z" id="路径"></path>
            </g>
            <rect id="矩形" fill="#5D6D7E" x="0" y="268" width="17" height="85"></rect>
            <g id="编组" transform="translate(7.000000, 275.000000)" fill="#F2F9FF">
                <path d="M4.99098449,2.62781314 C4.99098449,4.07433926 3.86404616,5.25178863 2.48827984,5.25178863 C1.10890732,5.25178863 0,4.07433926 0,2.62781314 C0,1.16220356 1.10710422,0 2.48827984,0 C3.86404616,-0.00570407944 4.99098449,1.16220356 4.99098449,2.62781314 Z" id="路径"></path>
                <ellipse id="椭圆形" cx="2.50270465" cy="69.3569411" rx="2.49729535" ry="2.64305895"></ellipse>
            </g>
        </g>
    </g>
</svg>